<svg t="1717066674936" class="icon" viewBox="0 0 1024 1024" version="1.1" xmlns="http://www.w3.org/2000/svg" p-id="1728" width="200" height="200"><path d="M687.991615 432.007215a31.99961 31.99961 0 0 1-31.99961 31.99961h-287.99649a31.903611 31.903611 0 0 1-22.591725-9.407885 31.903611 31.903611 0 0 1-9.407885-22.591725 175.997855 175.997855 0 0 1 77.503055-145.918222A159.99805 159.99805 0 0 1 509.881786 0.01248C597.688716-1.075507 670.583827 69.611632 671.99181 157.450561a159.742053 159.742053 0 0 1-61.50325 128.638432A175.869857 175.869857 0 0 1 687.991615 432.007215zM1023.98752 992.00039a31.99961 31.99961 0 0 1-31.99961 31.99961h-287.99649a31.903611 31.903611 0 0 1-22.591725-9.407885A31.903611 31.903611 0 0 1 671.99181 992.00039a175.997855 175.997855 0 0 1 77.503056-145.918222 159.99805 159.99805 0 0 1 96.382825-286.076513c87.80693-1.087987 160.702041 69.599152 162.110024 157.438081a159.742053 159.742053 0 0 1-61.50325 128.670432A175.869857 175.869857 0 0 1 1023.98752 992.00039v-0.032V992.00039z m-671.99181 0a31.99961 31.99961 0 0 1-31.99961 31.99961H31.99961a31.903611 31.903611 0 0 1-22.591725-9.407885A31.903611 31.903611 0 0 1 0 992.00039a175.997855 175.997855 0 0 1 77.503055-145.918222 159.99805 159.99805 0 0 1 96.414825-286.076513c87.77493-1.087987 160.670042 69.599152 162.078025 157.438081a159.742053 159.742053 0 0 1-61.50325 128.670432A175.869857 175.869857 0 0 1 351.99571 992.00039v-0.032V992.00039z m283.292547-271.996685a31.871612 31.871612 0 0 1-43.711467 11.711857L511.99376 685.764122l-79.61503 45.919441a31.99961 31.99961 0 0 1-31.99961-55.359326L479.99415 630.404797V544.00585a31.99961 31.99961 0 0 1 63.99922 0v86.302948l79.61503 45.887441c15.295814 8.959891 20.47975 28.511653 11.679857 43.839466z" fill="#32C8DA" p-id="1729"></path></svg>
